<?xml version="1.0" encoding="UTF-8"?>
<svg id="Layer_2" data-name="Layer 2" xmlns="http://www.w3.org/2000/svg" width="59.72" height="57.29" viewBox="0 0 59.72 57.29">
  <defs>
    <style>
      .cls-1 {
        fill: #40a4fa;
        stroke-width: 0px;
      }
    </style>
  </defs>
  <g id="Layer_1-2" data-name="Layer 1">
    <g>
      <path class="cls-1" d="m22.95,45.88c-.67.02-1.17.58-1.18,1.37v.05h2.42v-.05c-.02-.82-.54-1.38-1.24-1.37Zm-8.51-8.98c.33.04.62.09.92.13.05-.35.1-.66.15-1.01-.32-.04-.61-.08-.93-.13-.05.37-.1.69-.14,1.01Z"/>
      <path class="cls-1" d="m53.11,0h-23.2C22.07,0,14.24,0,6.4.01,2.81.02.02,2.86,0,6.46c0,1.18,0,2.36,0,3.54,0,10.12,0,20.26,0,30.39,0,1.39.23,2.72.98,3.9,1.25,1.96,3.07,2.97,5.39,2.99,3.84.03,7.67.02,11.51.02h3.88v-.05c0-.79.51-1.35,1.18-1.37.7,0,1.22.55,1.24,1.37v.05h11.67c.8,0,.81.02.81.82,0,1.98,0,3.98,0,5.97,0,.48-.12.68-.64.68-3.74-.02-7.48,0-11.21,0-.48,0-.65-.16-.64-.63.02-.95,0-5.76,0-6.84h-2.42c-.02,1.05,0,5.81,0,6.72,0,.78-.06.83-.83.83h-2.83c-.23,0-.46,0-.66.05-.59.11-.97.58-.96,1.16,0,.57.33.99.91,1.12.3.06.6.1.9.1h23.12c.45,0,.9,0,1.34-.05.71-.09,1.11-.57,1.09-1.24-.02-.62-.46-1.07-1.14-1.11-.57-.04-1.14-.02-1.71-.03-.79,0-1.82-.04-1.82-.82,0-1.92,0-3.86,0-5.78,0-.93,0-.94.95-.94,4.38,0,8.77-.02,13.16-.02,1.79,0,3.33-.62,4.59-1.9,1.26-1.27,1.84-2.82,1.84-4.61v-5.77c0-9.47,0-18.94,0-28.41C59.72,2.76,56.96,0,53.11,0Zm4.17,40.45c0,.6-.02,1.23-.16,1.8-.35,1.47-1.35,2.27-2.8,2.53-.32.06-.64.06-.97.06-15.65,0-31.3,0-46.95,0-.87,0-1.7-.14-2.44-.61-.81-.53-1.36-1.27-1.41-2.23-.09-1.4-.07-2.8-.06-4.2,0-.16.25-.35.43-.46.12-.07.32-.02.48-.02,8.97,0,27.67,0,27.67,0l-1.92-2.46H3.4q-.95,0-.95-.97V6.91c0-.42,0-.85.06-1.27.23-1.93,1.56-3.15,3.51-3.22.59-.02,1.18,0,1.77,0,15.12,0,30.24,0,45.37,0,.59,0,1.19.05,1.75.22,1.46.46,2.18,1.54,2.37,3.01.03.29.03.58.03.85,0,9.46,0,18.91,0,28.37-2.98-.02-8.54,0-9.79,0h-3.34l2.03,2.46s7.52,0,11.1-.02v3.13Zm-42.85-3.55c.04-.32.09-.64.14-1.01.32.05.61.09.93.13-.05.35-.1.66-.15,1.01-.3-.04-.59-.09-.92-.13Z"/>
      <g>
        <path class="cls-1" d="m10.65,25.76c.24-.29.44-.64.73-.87.54-.41,1.15-.4,1.75-.1.16.08.27.09.41-.03.23-.2.48-.38.73-.58-1.66-3.58-1.7-7.16.06-10.7,1.37-2.73,3.54-4.61,6.37-5.69,1.76-.67,3.67-.91,5.54-.67,2.6.34,4.85,1.38,6.71,3.14,1.62,1.53,2.71,3.39,3.32,5.58.4-.29.76-.55,1.11-.83.05-.04.06-.18.04-.26-.16-.74.04-1.36.65-1.81.61-.45,1.27-.46,1.94-.08.09.05.24.05.32-.02,1-.79,2-1.59,2.92-2.33l-1.19-.17.14-.97,3.08.44-.44,3.09-.94-.13.2-1.39s-.08-.07-.12-.11c-.23.2-.44.43-.68.61-.77.58-1.54,1.14-2.32,1.7-.17.12-.24.23-.19.46.13.72-.13,1.31-.74,1.73-.52.35-1.22.37-1.77.08-.17-.09-.28-.09-.43.03-.37.29-.75.57-1.14.84-.17.12-.21.24-.18.44.44,3.35-.37,6.37-2.44,9.04-.16.21-.34.41-.52.63.49.7.97,1.39,1.48,2.11.26-.22.49-.42.72-.62,2.42,3.27,4.81,6.48,7.17,9.67l-4.99,3.75c-2.35-3.17-4.74-6.39-7.14-9.63.17-.12.44-.3.74-.5-.52-.75-1-1.44-1.46-2.08-6.27,2.38-11.36.92-15.37-4.45-.19.14-.43.3-.66.49-.06.05-.08.18-.06.25.29,1.09-.45,2.01-1.34,2.17-1.05.19-1.97-.58-2.05-1.53,0-.03-.03-.06-.04-.08.03-.22.06-.44.09-.65Zm24.99-5.95c.52-5.85-3.93-11.17-9.78-11.72s-10.89,3.47-11.75,9.23c-.87,5.91,3.21,11.37,9.17,12.28,6.06.92,11.79-3.55,12.35-9.79Zm5.96,18.01l-5.93-7.99-3.47,2.6,5.93,7.99,3.47-2.6Zm-8.67-10.16l-1.95,1.48,1.27,1.81,1.95-1.47-1.27-1.82Zm-20.69-.59c.4.05.8-.25.85-.65.05-.4-.26-.79-.66-.84-.41-.05-.79.25-.84.66-.05.41.24.79.65.84Zm27.61-12.62c.05-.41-.25-.79-.65-.84-.4-.05-.8.26-.84.66-.05.4.26.8.66.84.41.05.79-.25.84-.66Z"/>
        <path class="cls-1" d="m40.46,18.21l.93.13-.15,1.02-.93-.13.15-1.02Z"/>
        <path class="cls-1" d="m43.96,23.25l-.14,1.02-.93-.13.14-1.02.93.13Z"/>
        <path class="cls-1" d="m38.19,26.43l.9.13-.15,1.02-.9-.13.15-1.02Z"/>
        <path class="cls-1" d="m16.2,31.14l-.93-.13.14-1.01.93.13-.14,1.01Z"/>
        <path class="cls-1" d="m15.51,36.02c-.05.35-.1.66-.15,1.01-.3-.04-.59-.09-.92-.13.04-.32.09-.64.14-1.01.32.05.61.09.93.13Z"/>
        <path class="cls-1" d="m24.01,33.3l-.14,1-.92-.13.14-1,.92.13Z"/>
        <path class="cls-1" d="m16.36,17.67c.65-4.67,5.01-7.94,9.7-7.28,4.68.67,7.95,5.03,7.27,9.7-.68,4.68-4.99,7.92-9.67,7.26-4.68-.65-7.95-4.99-7.29-9.68Zm1.31,3.65c.71-.48,1.43-.97,2.15-1.44.18-.12.22-.25.17-.47-.12-.48-.03-.94.26-1.35.44-.63,1.21-.89,1.96-.67.69.21,1.18.88,1.2,1.65,0,.17,0,.3.19.39,1.1.51,2.18,1.04,3.28,1.55.09.04.26.04.34-.02.65-.52,1.32-.58,2.06-.2.08.04.24.04.32-.02.9-.65,1.8-1.31,2.69-1.97.08-.06.15-.19.14-.29-.08-3.25-2.65-6.33-5.81-7.01-2.21-.47-4.25-.1-6.13,1.18-2.75,1.87-3.96,5.68-2.81,8.66Zm.47,1.1c1.66,3.1,5.15,4.67,8.56,3.81,3.31-.83,5.35-3.67,5.61-6.25-.75.55-1.48,1.08-2.19,1.62-.06.05-.06.21-.04.32.11.7-.09,1.3-.67,1.72-.57.42-1.2.49-1.83.15-.63-.33-.93-.87-.94-1.59,0-.11-.09-.27-.19-.32-1.09-.54-2.2-1.06-3.3-1.57-.09-.04-.26-.02-.34.04-.63.49-1.29.56-2,.2-.08-.04-.22-.03-.29.02-.8.61-1.58,1.22-2.38,1.85Zm10.14.58c.41.05.79-.24.84-.65.05-.4-.25-.8-.65-.85-.41-.05-.79.25-.84.66-.05.41.24.79.65.84Zm-6.5-4.69c-.4-.06-.8.22-.86.63-.06.39.24.8.63.86.41.06.8-.22.86-.63.06-.41-.22-.79-.63-.86Z"/>
        <g>
          <path class="cls-1" d="m35.38,35.07c.23-.16.48-.33.73-.51.73.98,1.48,1.98,2.26,3.02.27-.25.5-.47.74-.7.25.35.42.61.58.84-.48.36-.99.75-1.49,1.12-.93-1.24-1.87-2.49-2.83-3.78Z"/>
          <path class="cls-1" d="m34.82,32.82c.17.22.36.48.55.73-.25.18-.5.35-.74.52-.17-.23-.37-.48-.56-.74.23-.16.47-.33.74-.52Z"/>
        </g>
        <path class="cls-1" d="m21.79,14.15c-.18-.28-.34-.53-.5-.78,1.65-1.22,4.48-1.49,6.57-.32-.14.27-.28.54-.43.83-1.92-.89-3.8-.82-5.64.27Z"/>
        <path class="cls-1" d="m28.42,14.53c.21-.25.4-.48.62-.75.26.25.5.49.77.74-.26.23-.49.43-.73.64-.22-.22-.43-.42-.66-.64Z"/>
        <path class="cls-1" d="m21.55,24.58c.17-.29.32-.55.49-.84.99.55,2.05.78,3.19.74.02.33.04.62.06.96-1.33.1-2.55-.2-3.74-.86Z"/>
      </g>
    </g>
  </g>
</svg>